<svg width="48" height="48" viewBox="0 0 48 48" fill="none" xmlns="http://www.w3.org/2000/svg">
<path d="M0 24C0 10.7452 10.7452 0 24 0C37.2548 0 48 10.7452 48 24C48 37.2548 37.2548 48 24 48C10.7452 48 0 37.2548 0 24Z" fill="#129DFF"/>
<ellipse cx="24.0003" cy="15.4773" rx="1.81818" ry="1.89394" stroke="white" stroke-width="1.5" stroke-linecap="round" stroke-linejoin="round"/>
<path d="M22.1821 26.8409L23.0912 34.4167H24.9094L25.8185 26.8409" stroke="white" stroke-width="1.5" stroke-linecap="round" stroke-linejoin="round"/>
<path d="M20.3638 23.0531V26.841H22.182" stroke="white" stroke-width="1.5" stroke-linecap="round" stroke-linejoin="round"/>
<path d="M27.6365 23.0531V26.841H25.8184" stroke="white" stroke-width="1.5" stroke-linecap="round" stroke-linejoin="round"/>
<path d="M27.6365 23.053C27.6365 20.9697 26.0001 19.2651 24.0001 19.2651C22.0001 19.2651 20.3638 20.9697 20.3638 23.053" stroke="white" stroke-width="1.5" stroke-linecap="round" stroke-linejoin="round"/>
<ellipse cx="30.3636" cy="16.4243" rx="1.81818" ry="1.89394" stroke="white" stroke-width="1.5" stroke-linecap="round" stroke-linejoin="round"/>
<path d="M32.1818 26.3677L31.2727 32.523H29.4545L29 29.6821" stroke="white" stroke-width="1.5" stroke-linecap="round" stroke-linejoin="round"/>
<path d="M33.9998 23.7164V26.3679H32.1816" stroke="white" stroke-width="1.5" stroke-linecap="round" stroke-linejoin="round"/>
<path d="M33.9997 23.7162C33.9997 21.5381 33.0906 19.7389 31.2725 19.7389" stroke="white" stroke-width="1.5" stroke-linecap="round" stroke-linejoin="round"/>
<ellipse cx="17.6365" cy="16.4245" rx="1.81818" ry="1.89394" stroke="white" stroke-width="1.5" stroke-linecap="round" stroke-linejoin="round"/>
<path d="M19.0002 29.6821L18.5456 32.523H16.7275L15.8184 26.3677" stroke="white" stroke-width="1.5" stroke-linecap="round" stroke-linejoin="round"/>
<path d="M14 23.7163V26.3678H15.8182" stroke="white" stroke-width="1.5" stroke-linecap="round" stroke-linejoin="round"/>
<path d="M14 23.7162C14 21.5381 14.9091 19.7389 16.7273 19.7389" stroke="white" stroke-width="1.5" stroke-linecap="round" stroke-linejoin="round"/>
</svg>
