<svg width="202" height="60" viewBox="0 0 202 60" fill="none" xmlns="http://www.w3.org/2000/svg">
<path d="M24.1889 2L0 15.9666V43.8906L24.1889 57.8479L48.3591 43.8906V15.9666L24.1889 2ZM41.1979 39.753L24.1889 49.5727L7.17055 39.753V20.0949L24.1889 10.2751L41.1979 20.0949V39.753Z" fill="white"/>
<path style="mix-blend-mode:multiply" d="M24.1889 57.8479L48.3591 43.8906V15.9666L24.1889 2V10.2845L41.1979 20.1042V39.7624L24.1889 49.5727V57.8479Z" fill="white"/>
<path style="mix-blend-mode:multiply" d="M24.1702 1.99997L1.32368e-05 15.9573L1.32368e-05 43.8812L24.1702 57.8478V49.5633L7.16119 39.7436V20.0854L24.1702 10.2751V1.99997Z" fill="white"/>
<path d="M35.469 36.4486L24.1796 42.9639L12.8808 36.4486V23.4087L24.1796 16.884L35.469 23.4087L30.7697 26.1234L24.1796 22.3134L17.5894 26.1234V33.7245L24.1796 37.5345L30.7697 33.7245L35.469 36.4486Z" fill="white"/>
<path d="M66.2573 32.0398V31.9649C66.241 30.4852 66.5204 29.0172 67.0792 27.6469C67.6379 26.2767 68.4647 25.0319 69.5111 23.9855C70.5575 22.9391 71.8023 22.1123 73.1725 21.5536C74.5428 20.9948 76.0108 20.7154 77.4905 20.7317C79.1129 20.6749 80.7275 20.9817 82.216 21.6296C83.7045 22.2775 85.0292 23.2501 86.0933 24.4761L82.9948 27.7805C81.4877 26.2266 79.8963 25.0846 77.4531 25.0846C73.8678 25.0846 71.2186 28.1831 71.2186 31.9368V32.0211C71.2186 35.8497 73.8678 38.9014 77.6496 38.9014C78.7197 38.8807 79.7733 38.634 80.7412 38.1774C81.7092 37.7209 82.5697 37.0648 83.2663 36.2523L86.2431 39.1916C84.7645 40.9585 82.7803 42.2302 80.5574 42.8357C78.3345 43.4413 75.9795 43.3516 73.8091 42.5789C71.6387 41.8061 69.7569 40.3873 68.4169 38.5132C67.0768 36.6392 66.3428 34.3997 66.3135 32.096L66.2573 32.0398Z" fill="white"/>
<path d="M90.6708 21.1623H95.6415V26.0113C96.9895 22.7911 99.4702 20.5913 103.261 20.7504V25.9739H102.981C98.6558 25.9739 95.6415 28.7822 95.6415 34.483V42.6739H90.6708V21.1623Z" fill="white"/>
<path d="M105.63 32.0399V31.965C105.703 28.9784 106.939 26.1382 109.073 24.048C111.208 21.9578 114.073 20.7823 117.061 20.7713C120.048 20.7603 122.922 21.9148 125.072 23.9892C127.222 26.0637 128.478 28.8947 128.574 31.8807V31.965C128.574 33.4657 128.274 34.9513 127.691 36.3341C127.108 37.7169 126.253 38.9688 125.178 40.0159C124.103 41.063 122.829 41.8841 121.432 42.4306C120.034 42.9772 118.541 43.2382 117.041 43.1982C115.553 43.2358 114.073 42.9747 112.689 42.4304C111.304 41.8861 110.042 41.0697 108.978 40.0294C107.914 38.9891 107.07 37.7461 106.495 36.3738C105.92 35.0015 105.626 33.5278 105.63 32.0399V32.0399ZM123.64 32.0399V31.965C123.678 31.0723 123.536 30.1812 123.222 29.3447C122.908 28.5082 122.428 27.7436 121.813 27.0963C121.197 26.4489 120.457 25.9323 119.637 25.577C118.817 25.2218 117.934 25.0352 117.041 25.0284C113.081 25.0284 110.554 28.127 110.554 31.8807V31.965C110.52 32.8501 110.664 33.733 110.977 34.5616C111.29 35.3901 111.766 36.1474 112.377 36.7888C112.988 37.4303 113.721 37.9427 114.533 38.2959C115.346 38.6492 116.221 38.836 117.106 38.8453C121.113 38.8453 123.64 35.7468 123.64 32.0399Z" fill="white"/>
<path d="M133.544 21.1623H138.496V24.4668C139.198 23.3134 140.187 22.3619 141.367 21.7056C142.547 21.0492 143.877 20.7104 145.227 20.7224C150.076 20.7224 152.884 23.98 152.884 28.9507V42.6833H147.951V30.4485C147.951 27.1066 146.285 25.1969 143.345 25.1969C140.406 25.1969 138.496 27.2002 138.496 30.5327V42.702H133.526L133.544 21.1623Z" fill="white"/>
<path d="M157.677 32.0399V31.965C157.751 28.9784 158.986 26.1382 161.121 24.048C163.255 21.9578 166.121 20.7823 169.108 20.7713C172.096 20.7603 174.97 21.9148 177.119 23.9892C179.269 26.0637 180.525 28.8947 180.621 31.8807V31.965C180.621 33.4657 180.321 34.9513 179.738 36.3341C179.155 37.7169 178.301 38.9688 177.226 40.0159C176.151 41.063 174.877 41.8841 173.479 42.4306C172.081 42.9772 170.588 43.2382 169.088 43.1982C167.601 43.2358 166.121 42.9747 164.736 42.4304C163.351 41.8861 162.089 41.0697 161.026 40.0294C159.962 38.9891 159.117 37.7461 158.542 36.3738C157.967 35.0015 157.673 33.5278 157.677 32.0399V32.0399ZM175.688 32.0399V31.965C175.725 31.0723 175.583 30.1812 175.269 29.3447C174.955 28.5082 174.476 27.7436 173.86 27.0963C173.244 26.4489 172.504 25.9323 171.684 25.577C170.865 25.2218 169.982 25.0352 169.088 25.0284C165.128 25.0284 162.601 28.127 162.601 31.8807V31.965C162.567 32.8501 162.711 33.733 163.024 34.5616C163.337 35.3901 163.814 36.1474 164.424 36.7888C165.035 37.4303 165.769 37.9427 166.581 38.2959C167.393 38.6492 168.268 38.836 169.154 38.8453C173.132 38.8453 175.688 35.7468 175.688 32.0399Z" fill="white"/>
<path d="M183.879 39.8656L186.078 36.5238C188.089 38.1299 190.557 39.0573 193.127 39.1729C195.252 39.1729 196.469 38.2368 196.469 36.8514V36.7672C196.469 35.1009 194.194 34.5299 191.667 33.7529C188.484 32.8168 184.936 31.5531 184.936 27.481V27.3968C184.936 23.2779 188.325 20.7972 192.603 20.7972C195.414 20.8495 198.154 21.6966 200.504 23.2405L198.547 26.7415C196.737 25.548 194.646 24.8478 192.481 24.7101C190.609 24.7101 189.467 25.6463 189.467 26.8257V26.91C189.467 28.5014 191.789 29.1473 194.316 29.9617C197.452 30.9446 201 32.3675 201 36.2429V36.3178C201 40.8486 197.489 43.0858 193.006 43.0858C189.689 43.0621 186.476 41.9284 183.879 39.8656V39.8656Z" fill="white"/>
<path d="M94.5082 48.7642H96.3051L100.124 57.6797H98.1021L97.3159 55.7172H93.5535L92.7674 57.6797H90.8019L94.5082 48.7642ZM96.5298 53.9789L95.3505 51.1193L94.1713 53.9789H96.5298Z" fill="white"/>
<path d="M101.752 53.306C101.752 50.7828 103.661 48.7081 106.357 48.7081C108.042 48.7081 109.052 49.2688 109.839 50.0539L108.603 51.4557C107.929 50.8389 107.255 50.4464 106.357 50.4464C104.841 50.4464 103.774 51.68 103.774 53.1939C103.774 54.7079 104.841 55.9975 106.357 55.9975C107.368 55.9975 107.985 55.605 108.659 54.9882L109.895 56.2218C108.996 57.175 107.985 57.7918 106.245 57.7918C103.718 57.8479 101.752 55.8293 101.752 53.306Z" fill="white"/>
<path d="M112.141 53.306C112.141 50.7828 114.05 48.7081 116.746 48.7081C118.43 48.7081 119.441 49.2688 120.227 50.0539L118.992 51.4557C118.318 50.8389 117.644 50.4464 116.746 50.4464C115.229 50.4464 114.162 51.68 114.162 53.1939C114.162 54.7079 115.229 55.9975 116.746 55.9975C117.756 55.9975 118.374 55.605 119.048 54.9882L120.283 56.2218C119.385 57.175 118.374 57.7918 116.633 57.7918C114.05 57.8479 112.141 55.8293 112.141 53.306Z" fill="white"/>
<path d="M123.147 48.8763H129.83V50.6146H125.057V52.4089H129.212V54.1471H125.057V55.9975H129.886V57.7357H123.147V48.8763Z" fill="white"/>
<path d="M132.918 48.8763H134.884V55.9414H139.32V57.7357H132.918V48.8763Z" fill="white"/>
<path d="M142.016 48.8763H148.698V50.6146H143.925V52.4089H148.08V54.1471H143.925V55.9975H148.754V57.7357H142.016V48.8763V48.8763Z" fill="white"/>
<path d="M151.73 48.8763H155.773C156.897 48.8763 157.739 49.1567 158.357 49.7735C158.862 50.2781 159.143 50.951 159.143 51.7921C159.143 53.1939 158.357 54.0911 157.233 54.5396L159.423 57.6797H157.121L155.212 54.82H153.696V57.6797H151.73V48.8763ZM155.661 53.1378C156.616 53.1378 157.177 52.6332 157.177 51.9042C157.177 51.0632 156.616 50.6146 155.661 50.6146H153.696V53.1378H155.661Z" fill="white"/>
<path d="M165.207 48.7642H167.004L170.823 57.6797H168.801L168.015 55.7172H164.253L163.467 57.6797H161.501L165.207 48.7642ZM167.285 53.9789L166.106 51.1193L164.927 53.9789H167.285Z" fill="white"/>
<path d="M174.361 50.6707H171.665V48.8763H179.022V50.6707H176.326V57.7357H174.361V50.6707Z" fill="white"/>
<path d="M181.043 53.306C181.043 50.7828 183.009 48.7081 185.76 48.7081C188.512 48.7081 190.477 50.7267 190.477 53.25C190.477 55.7732 188.512 57.8479 185.76 57.8479C183.009 57.8479 181.043 55.8293 181.043 53.306ZM188.4 53.306C188.4 51.736 187.277 50.5024 185.704 50.5024C184.132 50.5024 183.065 51.736 183.065 53.25C183.065 54.7639 184.188 56.0536 185.76 56.0536C187.333 56.0536 188.4 54.82 188.4 53.306Z" fill="white"/>
<path d="M193.454 48.8763H197.497C198.62 48.8763 199.462 49.1567 200.08 49.7735C200.585 50.2781 200.866 50.951 200.866 51.7921C200.866 53.1939 200.08 54.0911 198.957 54.5396L201.147 57.6797H198.845L196.935 54.82H195.419V57.6797H193.454V48.8763ZM197.384 53.1378C198.339 53.1378 198.901 52.6332 198.901 51.9042C198.901 51.0632 198.339 50.6146 197.384 50.6146H195.419V53.1378H197.384Z" fill="white"/>
</svg>
